<?xml version="1.0" encoding="utf-8"?>
<!-- Generator: Adobe Illustrator 15.0.0, SVG Export Plug-In . SVG Version: 6.00 Build 0)  -->
<!DOCTYPE svg PUBLIC "-//W3C//DTD SVG 1.1//EN" "http://www.w3.org/Graphics/SVG/1.1/DTD/svg11.dtd">
<svg version="1.1" id="Layer_1" xmlns="http://www.w3.org/2000/svg" xmlns:xlink="http://www.w3.org/1999/xlink" x="0px" y="0px"
	 width="612px" height="792px" viewBox="0 0 612 792" enable-background="new 0 0 612 792" xml:space="preserve">
<g>
	<g>
		<path fill="#658D3D" stroke="#658D3D" stroke-width="40" stroke-miterlimit="10" d="M562.104,266.73l-17.564-17.686
			c-5.527-5.523-12.882-8.566-20.742-8.566c-7.855,0-15.218,3.043-20.747,8.566l-200.36,200.37L102.098,248.822
			c-5.519-5.523-12.883-8.562-20.738-8.562s-15.223,3.039-20.747,8.562l-17.568,17.577c-11.439,11.43-11.439,30.049,0,41.48
			l238.828,239.687c5.519,5.52,12.873,9.407,20.8,9.407h0.09c7.861,0,15.214-3.893,20.734-9.407l238.605-239.039
			c5.528-5.519,8.562-13.096,8.57-20.951C570.674,279.717,567.631,272.245,562.104,266.73z"/>
	</g>
</g>
</svg>
