<?xml version="1.0" encoding="utf-8"?>
<!-- Generator: Adobe Illustrator 15.0.0, SVG Export Plug-In . SVG Version: 6.00 Build 0)  -->
<!DOCTYPE svg PUBLIC "-//W3C//DTD SVG 1.1//EN" "http://www.w3.org/Graphics/SVG/1.1/DTD/svg11.dtd">
<svg version="1.1" id="Capa_1" xmlns="http://www.w3.org/2000/svg" xmlns:xlink="http://www.w3.org/1999/xlink" x="0px" y="0px"
	 width="201px" height="52px" viewBox="0 0 201 52" enable-background="new 0 0 201 52" xml:space="preserve">
<path fill="#FFFFFF" d="M136.146,36.867c-0.018,0.101-0.033,0.165-0.05,0.19c-0.179,0.795-0.673,1.389-1.486,1.777
	c-0.659,0.33-1.446,0.495-2.36,0.495l-0.014,0.063c0.779,0,1.436,0.117,1.969,0.355c0.711,0.321,1.065,0.821,1.065,1.498
	c0,1.134-0.622,1.95-1.866,2.45c-0.88,0.354-1.988,0.532-3.326,0.532h-4.887l2.006-9.433h4.812c1.616,0,2.745,0.179,3.389,0.534
	c0.313,0.169,0.521,0.381,0.622,0.634C136.104,36.169,136.146,36.468,136.146,36.867 M133.074,41.183
	c0-0.735-0.711-1.104-2.133-1.104h-2.652l-0.598,2.779h2.223c0.871,0,1.502-0.059,1.892-0.178c0.685-0.203,1.096-0.617,1.231-1.244
	C133.062,41.317,133.074,41.233,133.074,41.183 M133.748,37.235c0-0.457-0.387-0.754-1.155-0.889
	c-0.313-0.051-0.868-0.076-1.663-0.076h-1.842l-0.532,2.526h2.259C132.77,38.797,133.748,38.274,133.748,37.235"/>
<path fill="#FFFFFF" d="M145.732,38.353c-0.01,0.051-0.025,0.109-0.051,0.178l-1.207,5.7h-1.955l0.293-1.347
	c-0.889,1.076-2.082,1.613-3.58,1.613c-0.67,0-1.254-0.119-1.752-0.354c-0.652-0.304-0.977-0.752-0.977-1.345
	c0-0.963,0.627-1.688,1.881-2.18c0.168-0.066,1.332-0.367,3.484-0.898c1.255-0.305,1.882-0.715,1.882-1.229
	c0-0.558-0.622-0.837-1.87-0.837c-1.229,0-2.561,0.42-3.994,1.258l0.291-1.447c1.33-0.762,2.756-1.143,4.278-1.143
	c2.185,0,3.276,0.592,3.276,1.777V38.353z M143.282,40.345c-1.324,0.322-2.187,0.555-2.585,0.699
	c-1.34,0.457-2.012,0.936-2.012,1.435c0,0.517,0.441,0.774,1.324,0.774c0.85,0,1.553-0.215,2.113-0.642s0.926-1.047,1.096-1.86
	C143.268,40.532,143.29,40.396,143.282,40.345"/>
<path fill="#FFFFFF" d="M157.576,38.323c0,0.287-0.038,0.609-0.113,0.964l-1.068,4.942h-2.133l0.877-4.164
	c0.076-0.363,0.113-0.688,0.113-0.977c0-0.516-0.156-0.876-0.469-1.079c-0.246-0.153-0.648-0.229-1.207-0.229
	c-0.846,0-1.568,0.207-2.17,0.623c-0.643,0.439-1.049,1.062-1.219,1.865l-0.838,3.961h-2.146l1.625-7.654l2.058,0.013l-0.332,1.574
	c0.416-0.589,1.017-1.029,1.804-1.323c0.677-0.261,1.422-0.391,2.235-0.391c0.76,0,1.407,0.123,1.941,0.367
	C157.229,37.146,157.576,37.647,157.576,38.323"/>
<path fill="#FFFFFF" d="M168.354,37.272L168,39c-0.633-0.864-1.655-1.295-3.066-1.295c-2.028,0-3.236,0.863-3.625,2.589
	c-0.066,0.305-0.102,0.584-0.102,0.838c0,0.721,0.254,1.262,0.76,1.625c0.439,0.313,1.035,0.471,1.787,0.471
	c1.453,0,2.686-0.555,3.699-1.664l-0.369,1.728c-0.98,0.804-2.306,1.206-3.973,1.206c-1.126,0-2.018-0.207-2.679-0.622
	c-0.804-0.508-1.205-1.291-1.205-2.349c0-0.364,0.042-0.74,0.127-1.131c0.592-2.717,2.496-4.074,5.712-4.074
	C166.547,36.321,167.644,36.638,168.354,37.272"/>
<path fill="#FFFFFF" d="M179.64,39.329c0,0.33-0.037,0.678-0.114,1.041c-0.287,1.397-1.012,2.455-2.171,3.175
	c-1.032,0.635-2.302,0.952-3.808,0.952c-2.903,0-4.355-1.06-4.355-3.176c0-1.683,0.614-2.966,1.842-3.845
	c1.073-0.771,2.483-1.155,4.228-1.155C178.181,36.321,179.64,37.323,179.64,39.329 M177.66,39.583c0-1.252-0.899-1.879-2.699-1.879
	c-2.096,0-3.338,0.863-3.725,2.591c-0.068,0.305-0.102,0.592-0.102,0.862c0,1.381,0.886,2.07,2.661,2.07
	c2.086,0,3.344-0.965,3.774-2.895C177.631,40.062,177.66,39.812,177.66,39.583"/>
<polygon fill-rule="evenodd" clip-rule="evenodd" fill="#FFFFFF" points="47.099,31.657 42.891,31.657 46.04,16.811 50.246,16.811 
	"/>
<path fill-rule="evenodd" clip-rule="evenodd" fill="#FFFFFF" d="M67.997,31.657h-5.222l-5.266-11.368
	c-0.026,0.202-0.077,0.512-0.155,0.922l-2.207,10.446h-4.034l3.152-14.846h5.78c1.111,2.306,2.731,5.789,4.859,10.45
	c0.027-0.283,0.058-0.518,0.095-0.71l2.075-9.74h4.075L67.997,31.657z"/>
<polygon fill-rule="evenodd" clip-rule="evenodd" fill="#FFFFFF" points="87.641,19.75 82.112,19.75 79.578,31.657 75.37,31.657 
	77.907,19.75 72.354,19.75 72.971,16.812 88.259,16.812 "/>
<polygon fill-rule="evenodd" clip-rule="evenodd" fill="#FFFFFF" points="100.379,31.657 86.952,31.657 90.104,16.811 
	103.525,16.811 102.913,19.75 93.692,19.75 93,22.939 102.223,22.939 101.645,25.646 92.427,25.646 91.737,28.931 100.952,28.931 
	"/>
<path fill-rule="evenodd" clip-rule="evenodd" fill="#FFFFFF" d="M120.466,31.657h-5.28l-5.684-6.336l-1.346,6.336h-4.205
	l3.147-14.847h7.894c4.728,0,7.09,1.115,7.09,3.342c0,0.255-0.031,0.526-0.094,0.811c-0.336,1.545-1.295,2.714-2.88,3.492
	c-1.272,0.629-2.75,0.941-4.442,0.941L120.466,31.657z M117.664,21.498c0.026-0.127,0.041-0.244,0.041-0.344
	c0-0.601-0.408-1.006-1.213-1.212c-0.434-0.116-1.125-0.17-2.076-0.17h-3.742l-0.73,3.457h4.127
	C116.222,23.229,117.422,22.65,117.664,21.498"/>
<path fill-rule="evenodd" clip-rule="evenodd" fill="#FFFFFF" d="M137.502,29.853c-2.062,1.383-4.445,2.074-7.16,2.074
	c-2.293,0-4.08-0.449-5.359-1.346c-1.422-0.972-2.133-2.418-2.133-4.34c0-0.625,0.078-1.29,0.234-1.996
	c0.545-2.599,1.817-4.567,3.822-5.901c1.803-1.2,4.037-1.803,6.699-1.803c2.881,0,4.988,0.649,6.32,1.943l-0.674,3.09l-0.828,0.137
	c-0.893-1.437-2.539-2.154-4.935-2.154c-3.569,0-5.702,1.62-6.392,4.859c-0.092,0.424-0.137,0.819-0.137,1.191
	c0,1.127,0.39,1.992,1.172,2.596c0.744,0.585,1.768,0.882,3.069,0.882c1.412,0,2.699-0.313,3.861-0.938
	c0.912-0.475,2.024-1.32,3.344-2.539L137.502,29.853z"/>
<path fill-rule="evenodd" clip-rule="evenodd" fill="#FFFFFF" d="M157.344,31.657h-4.53l-0.94-3.82h-7.301l-2.48,3.82h-4.299
	l10.141-14.847h5.549L157.344,31.657z M151.334,25.207l-1.269-5.859l-3.782,5.859H151.334z"/>
<path fill-rule="evenodd" clip-rule="evenodd" fill="#FFFFFF" d="M179.893,31.657h-3.975l2.289-10.737
	c-1.58,2.383-3.933,5.962-7.071,10.737h-3.744l-2.229-10.964l-2.321,10.964h-3.979l3.149-14.846h6.26l1.869,8.873
	c0.06,0.321,0.129,0.814,0.208,1.48c0.077-0.141,0.229-0.393,0.461-0.749l6.184-9.604h6.051L179.893,31.657z"/>
<path fill="#FFFFFF" d="M32.065,13.825c-0.643-0.896-2.558-1.133-5.537-0.683l-0.008,0.131c1.285,0.366,1.922,0.921,1.893,1.648
	c-0.093,2.348-7.384,6.278-14.183,7.646l0.013,0.133h0.091c3.901,0,7.991-0.882,11.527-2.488c3.014-1.369,5.373-3.166,6.158-4.689
	C32.365,14.852,32.381,14.265,32.065,13.825"/>
<path fill="#FFFFFF" d="M36.68,16.581c-0.796-0.985-2.734-1.219-5.457-0.658l-0.131,0.027l0.1,0.089
	c0.895,0.792,1.222,1.663,0.972,2.591c-1.005,3.734-10.849,7.593-17.568,8.942l0.017,0.133c7.504-0.46,12.569-2.175,15.497-3.532
	c3.379-1.567,5.874-3.586,6.674-5.401C37.168,17.899,37.132,17.142,36.68,16.581"/>
<path fill="#FFFFFF" d="M38.902,21.511c-0.761-0.966-2.627-1.238-5.257-0.769l-0.137,0.025l0.104,0.092
	c0.936,0.829,1.282,1.727,1.028,2.67c-0.547,2.033-3.673,3.855-6.199,5.025c-3.04,1.409-6.989,2.679-10.561,3.397l0.018,0.131
	c13.197-1.019,19.854-5.647,21.108-8.51C39.362,22.763,39.325,22.049,38.902,21.511"/>
<path fill="#FFFFFF" d="M36.434,28.597c-0.501-0.652-2.003-0.781-4.231-0.361l0.006,0.132c1.074,0.116,1.662,0.441,1.701,0.94
	c0.05,0.651-0.83,1.556-2.415,2.477c-1.258,0.732-3.539,1.813-7.265,2.812l0.018,0.133c6.407-0.151,11.284-3.026,12.206-4.956
	C36.676,29.311,36.668,28.903,36.434,28.597"/>
<path fill="#FFFFFF" d="M26.473,12.847c-0.502-0.653-2.003-0.781-4.23-0.362l0.004,0.133c1.076,0.116,1.664,0.442,1.702,0.942
	c0.051,0.653-0.83,1.557-2.414,2.477c-1.257,0.732-3.538,1.812-7.263,2.809l0.019,0.132c6.403-0.15,11.28-3.025,12.203-4.955
	C26.716,13.56,26.708,13.152,26.473,12.847"/>
<path fill="#FFFFFF" d="M28.777,35.194c-6.722,2.728-11.133,0.353-13.165-1.305c-3.345-2.729-4.994-7.26-4.201-11.542
	c0.488-2.632,2.347-7.392,9.32-9.689l-0.024-0.13c-2.997,0.166-5.847,1.409-8.023,3.501c-2.197,2.11-3.554,4.947-3.823,7.987
	c-0.603,6.923,4.538,13.046,11.46,13.652c0.371,0.033,0.74,0.048,1.109,0.048c2.659,0,5.256-0.836,7.412-2.405L28.777,35.194z"/>
<path fill-rule="evenodd" clip-rule="evenodd" fill="#FFFFFF" d="M185.139,29.339c0,0.615-0.25,1.162-0.748,1.646
	c-0.49,0.477-1.047,0.719-1.666,0.719c-0.445,0-0.824-0.146-1.123-0.438c-0.297-0.289-0.451-0.657-0.451-1.102
	c0-0.622,0.244-1.169,0.736-1.645c0.498-0.478,1.049-0.718,1.67-0.718c0.461,0,0.838,0.141,1.133,0.425
	C184.989,28.509,185.139,28.877,185.139,29.339 M184.85,29.22l-0.027-0.098c-0.088-0.328-0.25-0.581-0.483-0.761
	c-0.228-0.181-0.511-0.275-0.84-0.275c-0.526,0-1,0.206-1.42,0.622c-0.422,0.409-0.634,0.875-0.634,1.401
	c0,0.366,0.13,0.677,0.381,0.929c0.262,0.245,0.57,0.372,0.938,0.372c0.463,0,0.893-0.158,1.289-0.476
	c0.399-0.319,0.65-0.705,0.75-1.16C184.834,29.628,184.85,29.441,184.85,29.22 M184.242,29.08c0,0.181-0.059,0.341-0.18,0.479
	c-0.115,0.134-0.262,0.219-0.447,0.259l0.271,0.985h-0.522l-0.239-0.908h-0.339l-0.194,0.908h-0.471l0.461-2.184h0.841
	C183.969,28.62,184.242,28.771,184.242,29.08 M183.746,29.188c0-0.179-0.157-0.271-0.462-0.271h-0.289l-0.146,0.685h0.309
	C183.551,29.603,183.746,29.466,183.746,29.188"/>
</svg>
