<?xml version="1.0" encoding="utf-8"?>
<!-- Generator: Adobe Illustrator 15.0.0, SVG Export Plug-In . SVG Version: 6.00 Build 0)  -->
<!DOCTYPE svg PUBLIC "-//W3C//DTD SVG 1.1//EN" "http://www.w3.org/Graphics/SVG/1.1/DTD/svg11.dtd">
<svg version="1.1" id="Capa_1" xmlns="http://www.w3.org/2000/svg" xmlns:xlink="http://www.w3.org/1999/xlink" x="0px" y="0px"
	 width="16px" height="19px" viewBox="0 0 16 19" enable-background="new 0 0 16 19" xml:space="preserve">
<g>
	<path fill="#BCBCBC" d="M7.5,6C5.57,6,4,7.57,4,9.5C4,11.43,5.57,13,7.5,13c1.93,0,3.5-1.57,3.5-3.5C11,7.57,9.43,6,7.5,6z
		 M9.861,8.77l-2.208,2.098C7.561,10.956,7.439,11,7.318,11s-0.243-0.044-0.335-0.132l-0.844-0.802
		c-0.185-0.176-0.185-0.461,0-0.639c0.185-0.176,0.486-0.176,0.67,0l0.509,0.483l1.872-1.779c0.186-0.176,0.486-0.176,0.672,0
		C10.046,8.308,10.046,8.594,9.861,8.77z"/>
	<path fill="#BCBCBC" d="M15.98,5.155V5.14c-0.008-0.182-0.014-0.375-0.017-0.59c-0.015-1.048-0.839-1.914-1.875-1.973
		c-2.159-0.122-3.832-0.834-5.26-2.241L8.816,0.324c-0.464-0.432-1.167-0.432-1.633,0L7.171,0.336c-1.428,1.407-3.1,2.12-5.26,2.241
		C0.877,2.636,0.052,3.502,0.038,4.55c-0.004,0.214-0.01,0.407-0.017,0.59L0.02,5.175c-0.042,2.227-0.094,5,0.823,7.517
		c0.504,1.384,1.268,2.586,2.27,3.574c1.14,1.127,2.635,2.021,4.442,2.657c0.059,0.021,0.12,0.038,0.182,0.05
		C7.825,18.991,7.913,19,8.001,19c0.089,0,0.177-0.009,0.265-0.027c0.062-0.012,0.123-0.029,0.182-0.05
		c1.805-0.638,3.298-1.532,4.438-2.657c1-0.99,1.764-2.193,2.27-3.578c0.92-2.522,0.867-5.3,0.826-7.532H15.98z M7.5,14
		C5.019,14,3,11.98,3,9.5C3,7.019,5.019,5,7.5,5C9.98,5,12,7.019,12,9.5C12,11.98,9.98,14,7.5,14z"/>
</g>
</svg>
