<?xml version="1.0" encoding="utf-8"?>
<!-- Generator: Adobe Illustrator 15.0.0, SVG Export Plug-In . SVG Version: 6.00 Build 0)  -->
<!DOCTYPE svg PUBLIC "-//W3C//DTD SVG 1.1//EN" "http://www.w3.org/Graphics/SVG/1.1/DTD/svg11.dtd">
<svg version="1.1" id="Layer_1" xmlns="http://www.w3.org/2000/svg" xmlns:xlink="http://www.w3.org/1999/xlink" x="0px" y="0px"
	 width="512px" height="512px" viewBox="0 0 512 512" enable-background="new 0 0 512 512" xml:space="preserve">
<g>
	<path fill="#658D3D" d="M446,40h-46V16c0-8.836-7.163-16-16-16s-16,7.164-16,16v24H144V16c0-8.836-7.163-16-16-16s-16,7.164-16,16
		v24H66C29.607,40,0,69.607,0,106v340c0,36.393,29.607,66,66,66h380c36.393,0,66-29.607,66-66V106C512,69.607,482.393,40,446,40z
		 M480,446c0,18.778-15.222,34-34,34H66c-18.778,0-34-15.222-34-34V181c0-2.761,2.239-5,5-5h438c2.761,0,5,2.239,5,5V446z"/>
</g>
</svg>
