<svg xmlns="http://www.w3.org/2000/svg" width="21" height="20" viewBox="0 0 21 20">
    <g fill="#658D3D" stroke="#658D3D" stroke-width="2">
        <path d="M10.274 17.292c.301-.277.301-.724 0-1.001L2.357 9l7.917-7.29c.301-.278.301-.725 0-1.002-.3-.277-.786-.277-1.087 0L.725 8.499C.575 8.637.5 8.82.5 9s.075.363.225.5l8.462 7.792c.3.277.787.277 1.087 0z" transform="translate(1 1)"/>
        <path d="M18.797 17.792c.27-.277.27-.724 0-1.001L11.671 9.5l7.126-7.29c.27-.278.27-.725 0-1.002s-.708-.277-.979 0l-7.615 7.791c-.135.138-.203.32-.203.501s.068.363.203.5l7.615 7.792c.27.277.708.277.979 0z" transform="translate(1 1)"/>
    </g>
</svg>
