<?xml version="1.0" encoding="UTF-8"?>
<svg width="58px" height="53px" viewBox="0 0 58 53" version="1.1" xmlns="http://www.w3.org/2000/svg" xmlns:xlink="http://www.w3.org/1999/xlink">
    <title>Group 14</title>
    <g id="recuperar_contraseña" stroke="none" stroke-width="1" fill="none" fill-rule="evenodd">
        <g id="Group-14" transform="translate(0.000000, 0.500000)" fill-rule="nonzero">
            <g id="Group-10" transform="translate(0.000000, 1.020000)" fill="#669931">
                <path d="M56.3351342,18.7571788 C54.8749955,16.8826745 51.2946815,16.3548638 46.2484726,17.2649492 L45.9856093,17.3134612 L46.1851552,17.4919854 C47.9810683,19.1006439 48.6449421,20.8431956 48.1575897,22.6730688 C47.108055,26.618066 41.1101656,30.1536218 36.2635026,32.4239842 C30.4306224,35.1581215 22.8536343,37.6225319 16,39.015797 L16.0345368,39.27 C41.3557606,37.2926502 54.128617,28.3121057 56.5346801,22.7565095 C57.2177411,21.1866606 57.1467488,19.8011574 56.3351342,18.7571788" id="Path"></path>
                <path d="M52.6489454,30.3492171 C51.6781062,28.9671022 48.7675264,28.693647 44.4501017,29.5839664 L44.4617285,29.863781 C46.5429288,30.1096788 47.6823568,30.7986164 47.7579311,31.8564006 C47.8548212,33.2363957 46.1495548,35.154822 43.0781373,37.1071652 C40.6403814,38.6588647 36.2202532,40.9503773 29,43.0680655 L29.0348805,43.35 C41.450383,43.029909 50.9010473,36.9354608 52.6877014,32.8442312 C53.1178937,31.86276 53.1023912,30.9978784 52.6489454,30.3492171" id="Path"></path>
                <path d="M39.8701887,44.6699095 C26.4456985,49.8620772 17.636501,45.3417699 13.5783986,42.1861196 C6.8981071,36.9920486 3.60489314,28.3682539 5.18859155,20.2183778 C6.16317518,15.2089257 9.87577964,6.14927823 23.8015413,1.77742735 L23.7536109,1.53 C17.7683094,1.84594569 12.0765812,4.21173178 7.73089681,8.19340877 C3.34327335,12.2093449 0.633211897,17.6089709 0.0959926399,23.3949643 C-1.10825722,36.5714221 9.1588216,48.2252501 22.9827313,49.3786422 C23.7236545,49.4414507 24.4605835,49.47 25.1975125,49.47 C30.5077951,49.47 35.6942576,47.8788518 40,44.8925941 L39.8701887,44.6699095 Z" id="Path"></path>
            </g>
            <path d="M45.5499314,3.73906521 C44.2682602,2.05701478 40.4511523,1.61209742 34.5132075,2.45687722 L34.4972614,2.702802 C37.0586105,3.38988956 38.3283221,4.43178464 38.2705174,5.79657333 C38.0851434,10.2044466 23.5522278,17.5821901 10,20.1503206 L10.0259125,20.4 L10.2072999,20.4 C17.9830376,20.4 26.1355029,18.7442316 33.1836979,15.7293064 C39.1914071,13.1592985 43.8935258,9.78581123 45.4582411,6.92670096 C46.1479117,5.66704043 46.179804,4.56507212 45.5499314,3.73906521" id="Path" fill="#668E1F"></path>
            <path d="M53.2793998,9.93736568 C51.7194287,8.10774551 47.9214085,7.67309462 42.5849747,8.71514226 L42.3282458,8.76529428 L42.524222,8.93061022 C44.2782097,10.4017363 44.9190521,12.0196035 44.4291114,13.7433471 C42.4595499,20.6791865 23.1676457,27.8472111 10,30.3529548 L10.033316,30.6 C24.7393754,29.7455581 34.6655735,26.5599758 40.4037588,24.0393721 C47.025797,21.1286972 51.915405,17.3784402 53.4832151,14.0071096 C54.235764,12.3855275 54.1652126,10.9794133 53.2793998,9.93736568" id="Path" fill="#668E1F"></path>
            <path d="M33.6471676,1.28057356 C32.6742246,-0.103968191 29.7650861,-0.375363817 25.4488626,0.513032803 L25.4566152,0.795029821 C27.5420469,1.04098211 28.6816694,1.73219284 28.7553185,2.79233201 C28.8541633,4.17687376 27.1466676,6.09360537 24.0766641,8.04426143 C21.6404302,9.59630517 17.2195475,11.8862058 10,14.0001233 L10.0368245,14.28 C22.4466937,13.9619583 31.8989711,7.86615805 33.6878684,3.77402087 C34.1181341,2.79233201 34.102629,1.92725845 33.6471676,1.28057356" id="Path" fill="#668E1F"></path>
        </g>
    </g>
</svg>