<?xml version="1.0" encoding="UTF-8"?>
<svg width="18px" height="24px" viewBox="0 0 18 24" version="1.1" xmlns="http://www.w3.org/2000/svg" xmlns:xlink="http://www.w3.org/1999/xlink">
    <title>Group 32</title>
    <g id="PAGOS" stroke="none" stroke-width="1" fill="none" fill-rule="evenodd">
        <g id="seleccionar_cuenta-copy" transform="translate(-1125.000000, -150.000000)" fill="#FFFFFF" fill-rule="nonzero">
            <g id="Group-25" transform="translate(1120.000000, 126.000000)">
                <g id="Group-32" transform="translate(5.000000, 24.000000)">
                    <path d="M6.42857143,21.3333333 C6.86514742,22.9020935 7.85316483,24 9,24 C10.1468352,24 11.1348162,22.9020935 11.5714286,21.3333333 L6.42857143,21.3333333 Z" id="Path"></path>
                    <path d="M8.99978319,2.19889123 C9.90171932,2.19889123 10.7677514,2.36413677 11.5714286,2.66666667 L11.5714286,2.56387224 C11.5714286,1.15014493 10.4637816,0 9.10233506,0 L8.8977083,0 C7.53621837,0 6.42857143,1.15014493 6.42857143,2.56387224 L6.42857143,2.66536091 C7.23181493,2.36373153 8.09758689,2.19889123 8.99978319,2.19889123 L8.99978319,2.19889123 Z" id="Path"></path>
                    <path d="M17.3159584,18.6666667 L0.684026384,18.6666667 C0.369371333,18.6666667 0.0811522823,18.4700175 0.0157065198,18.184761 C-0.0490727889,17.9023454 0.0898161816,17.6235945 0.371592846,17.5029533 C0.438460376,17.4627671 0.941766281,17.1366243 1.44564978,16.1498787 C2.37108752,14.3377914 2.56533658,11.7851817 2.56533658,9.96288311 C2.56533658,6.67489781 5.45183682,4 8.99977024,4 C12.5393063,4 15.4204749,6.66201021 15.4341595,9.9392078 C15.4344705,9.94707212 15.4346482,9.95497762 15.4346482,9.96288311 C15.4346482,11.7851817 15.6288973,14.3377914 16.554335,16.1498787 C17.0582185,17.1366243 17.56148,17.4628082 17.6283919,17.5029533 C17.9101686,17.6235945 18.049102,17.9023043 17.9842783,18.184761 C17.9188325,18.4699763 17.6306579,18.6666667 17.3159584,18.6666667 Z" id="Shape"></path>
                </g>
            </g>
        </g>
    </g>
</svg>