<?xml version="1.0" encoding="UTF-8"?>
<svg width="18px" height="19px" viewBox="0 0 18 19" version="1.1" xmlns="http://www.w3.org/2000/svg" xmlns:xlink="http://www.w3.org/1999/xlink">
    <title>Group 33 Copy</title>
    <g id="PAGOS" stroke="none" stroke-width="1" fill="none" fill-rule="evenodd">
        <g id="seleccionar_cuenta-copy" transform="translate(-1125.000000, -232.000000)" fill="#FFFFFF" fill-rule="nonzero">
            <g id="Group-26" transform="translate(1120.000000, 206.000000)">
                <g id="sobresalir" transform="translate(5.000000, 26.849315)">
                    <path d="M9.459,0.0107186884 C9.621,-0.0225218276 9.793125,0.0229068777 9.921375,0.128168512 C10.05075,0.233430146 10.125,0.389660572 10.125,0.554755135 L10.125,0.554755135 L10.125,2.21678094 L17.4375,2.21678094 C17.748,2.21678094 18,2.46497679 18,2.77078954 L18,2.77078954 L18,13.8509616 C18,14.1567743 17.748,14.4049702 17.4375,14.4049702 L17.4375,14.4049702 L10.125,14.4049702 L10.125,16.066996 C10.125,16.2309825 10.05075,16.388321 9.921375,16.4935826 C9.820125,16.5766839 9.693,16.6210046 9.5625,16.6210046 C9.527625,16.6210046 9.49275,16.6176805 9.459,16.6110324 L9.459,16.6110324 L0.459,14.9490066 C0.192375,14.9002539 0,14.6708943 0,14.4049702 L0,14.4049702 L0,2.21678094 C0,1.94974879 0.192375,1.72149725 0.459,1.67274449 L0.459,1.67274449 Z M16.875,3.32479814 L10.125,3.32479814 L10.125,4.43281534 L11.8125,4.43281534 C12.123,4.43281534 12.375,4.6810112 12.375,4.98682394 C12.375,5.29263669 12.123,5.54083254 11.8125,5.54083254 L11.8125,5.54083254 L10.125,5.54083254 L10.125,6.64884975 L11.8125,6.64884975 C12.123,6.64884975 12.375,6.8970456 12.375,7.20285835 C12.375,7.5086711 12.123,7.75686695 11.8125,7.75686695 L11.8125,7.75686695 L10.125,7.75686695 L10.125,8.86488415 L11.8125,8.86488415 C12.123,8.86488415 12.375,9.11308 12.375,9.41889275 C12.375,9.7247055 12.123,9.97290135 11.8125,9.97290135 L11.8125,9.97290135 L10.125,9.97290135 L10.125,11.0809186 L11.8125,11.0809186 C12.123,11.0809186 12.375,11.3291144 12.375,11.6349272 C12.375,11.9407399 12.123,12.1889358 11.8125,12.1889358 L11.8125,12.1889358 L10.125,12.1889358 L10.125,13.296953 L16.875,13.296953 L16.875,3.32479814 Z M15.6428571,10.803653 C15.9977143,10.803653 16.2857143,10.9898082 16.2857143,11.2191781 C16.2857143,11.4485479 15.9977143,11.6347032 15.6428571,11.6347032 L15.6428571,11.6347032 L14.3571429,11.6347032 C14.0022857,11.6347032 13.7142857,11.4485479 13.7142857,11.2191781 C13.7142857,10.9898082 14.0022857,10.803653 14.3571429,10.803653 L14.3571429,10.803653 Z M7.659,5.10427377 C7.41375,4.91591084 7.0605,4.96023153 6.86925,5.20067126 L6.86925,5.20067126 L5.203125,7.31033602 L3.799125,5.73030349 C3.592125,5.49872789 3.23775,5.47656755 3.004875,5.67822668 C2.770875,5.87988581 2.74725,6.23001924 2.952,6.45937881 L2.952,6.45937881 L4.498875,8.20118185 L2.930625,10.1867487 C2.7405,10.4282964 2.784375,10.7762138 3.029625,10.9645767 C3.133125,11.043246 3.254625,11.0809186 3.375,11.0809186 C3.5415,11.0809186 3.708,11.0077894 3.819375,10.8681793 L3.819375,10.8681793 L5.25375,9.05103104 L6.8895,10.8914476 C7.000875,11.0166536 7.156125,11.0809186 7.3125,11.0809186 C7.444125,11.0809186 7.57575,11.0354899 7.682625,10.9435244 C7.916625,10.7418653 7.94025,10.3917319 7.7355,10.1623723 L7.7355,10.1623723 L5.956875,8.16018521 L7.756875,5.88210184 C7.948125,5.63944608 7.90425,5.29152867 7.659,5.10427377 Z M15.6428571,9.14155251 C15.9977143,9.14155251 16.2857143,9.32770776 16.2857143,9.55707763 C16.2857143,9.78644749 15.9977143,9.97260274 15.6428571,9.97260274 L15.6428571,9.97260274 L14.3571429,9.97260274 C14.0022857,9.97260274 13.7142857,9.78644749 13.7142857,9.55707763 C13.7142857,9.32770776 14.0022857,9.14155251 14.3571429,9.14155251 L14.3571429,9.14155251 Z M15.6428571,6.64840183 C15.9977143,6.64840183 16.2857143,6.83455708 16.2857143,7.06392694 C16.2857143,7.2932968 15.9977143,7.47945205 15.6428571,7.47945205 L15.6428571,7.47945205 L14.3571429,7.47945205 C14.0022857,7.47945205 13.7142857,7.2932968 13.7142857,7.06392694 C13.7142857,6.83455708 14.0022857,6.64840183 14.3571429,6.64840183 L14.3571429,6.64840183 Z M15.6428571,4.98630137 C15.9977143,4.98630137 16.2857143,5.17245662 16.2857143,5.40182648 C16.2857143,5.63119635 15.9977143,5.8173516 15.6428571,5.8173516 L15.6428571,5.8173516 L14.3571429,5.8173516 C14.0022857,5.8173516 13.7142857,5.63119635 13.7142857,5.40182648 C13.7142857,5.17245662 14.0022857,4.98630137 14.3571429,4.98630137 L14.3571429,4.98630137 Z" id="Combined-Shape"></path>
                </g>
            </g>
        </g>
    </g>
</svg>