<?xml version="1.0" encoding="utf-8"?>
<!-- Generator: Adobe Illustrator 15.0.0, SVG Export Plug-In . SVG Version: 6.00 Build 0)  -->
<!DOCTYPE svg PUBLIC "-//W3C//DTD SVG 1.1//EN" "http://www.w3.org/Graphics/SVG/1.1/DTD/svg11.dtd">
<svg version="1.1" id="Layer_1" xmlns="http://www.w3.org/2000/svg" xmlns:xlink="http://www.w3.org/1999/xlink" x="0px" y="0px"
	 width="612px" height="792px" viewBox="0 0 612 792" enable-background="new 0 0 612 792" xml:space="preserve">
<g>
	<g>
		<path fill="#658D3D" d="M602.218,245.472l-20.047-20.186c-6.309-6.304-14.703-9.777-23.674-9.777
			c-8.967,0-17.37,3.473-23.68,9.777L306.137,453.977L77.192,225.032c-6.299-6.304-14.703-9.772-23.669-9.772
			c-8.966,0-17.375,3.468-23.679,9.772L9.792,245.094c-13.056,13.046-13.056,34.297,0,47.343l272.586,273.566
			c6.299,6.3,14.693,10.737,23.739,10.737h0.104c8.971,0,17.364-4.443,23.664-10.737l272.332-272.825
			c6.31-6.299,9.772-14.947,9.782-23.913C612,260.294,608.527,251.766,602.218,245.472z"/>
	</g>
</g>
</svg>
