<?xml version="1.0" encoding="utf-8"?>
<!-- Generator: Adobe Illustrator 15.0.0, SVG Export Plug-In . SVG Version: 6.00 Build 0)  -->
<!DOCTYPE svg PUBLIC "-//W3C//DTD SVG 1.1//EN" "http://www.w3.org/Graphics/SVG/1.1/DTD/svg11.dtd">
<svg version="1.1" id="Capa_1" xmlns="http://www.w3.org/2000/svg" xmlns:xlink="http://www.w3.org/1999/xlink" x="0px" y="0px"
	 width="448px" height="448px" viewBox="0 0 448 448" enable-background="new 0 0 448 448" xml:space="preserve">
<circle opacity="0.16" fill="#F9F9F9" enable-background="new    " cx="223.044" cy="224.836" r="209"/>
<g>
	<path fill="#515151" d="M176.146,178.819c0.775-0.723,1.439-1.556,1.962-2.474c0.264-0.348,0.506-0.707,0.722-1.081
		c1.355-2.811,1.355-6.09,0-8.901c-0.211-0.375-0.453-0.738-0.722-1.081c-0.522-0.923-1.187-1.756-1.962-2.483
		c-0.143-0.126-0.195-0.311-0.349-0.433l-53.994-43.196c-4.656-3.723-11.458-2.968-15.181,1.688
		c-3.729,4.656-2.975,11.458,1.682,15.181l29.956,23.976h-34.006c-5.963,0-10.799,4.835-10.799,10.799s4.836,10.799,10.799,10.799
		h34.006l-29.956,23.966c-4.656,3.723-5.41,10.524-1.682,15.181c3.723,4.656,10.524,5.41,15.181,1.683l53.994-43.196
		C175.951,179.129,176.004,178.945,176.146,178.819z"/>
	<path fill="#515151" d="M341.832,160.015h-34.005l29.956-23.965c4.653-3.723,5.41-10.525,1.682-15.181
		c-3.723-4.656-10.522-5.41-15.181-1.682l-53.995,43.196c-0.152,0.116-0.205,0.3-0.348,0.427c-0.775,0.722-1.439,1.555-1.963,2.473
		c-0.265,0.348-0.506,0.707-0.723,1.081c-1.354,2.811-1.354,6.09,0,8.901c0.217,0.374,0.458,0.733,0.723,1.081
		c0.521,0.918,1.188,1.751,1.963,2.474c0.143,0.126,0.195,0.311,0.348,0.427l53.995,43.196c4.656,3.727,11.458,2.973,15.181-1.683
		c3.729-4.656,2.976-11.458-1.682-15.181l-29.956-23.966h34.005c5.964,0,10.8-4.835,10.8-10.799
		C352.632,164.851,347.796,160.015,341.832,160.015z"/>
	<path fill="#515151" d="M223.044,257.205c-39.642-0.115-75.351,23.955-90.12,60.744c-2.188,5.516,0.491,11.77,5.99,13.994
		c5.505,2.226,11.77-0.405,14.031-5.896c11.543-28.579,39.278-47.293,70.099-47.293c30.821,0,58.556,18.714,70.099,47.293
		c1.431,3.604,4.678,6.164,8.518,6.707c3.833,0.55,7.672-1.002,10.05-4.064c2.373-3.06,2.932-7.16,1.455-10.74
		C298.395,281.16,262.686,257.09,223.044,257.205z"/>
</g>
</svg>
