<?xml version="1.0" encoding="utf-8"?>
<!-- Generator: Adobe Illustrator 15.0.0, SVG Export Plug-In . SVG Version: 6.00 Build 0)  -->
<!DOCTYPE svg PUBLIC "-//W3C//DTD SVG 1.1//EN" "http://www.w3.org/Graphics/SVG/1.1/DTD/svg11.dtd">
<svg version="1.1" id="Capa_1" xmlns="http://www.w3.org/2000/svg" xmlns:xlink="http://www.w3.org/1999/xlink" x="0px" y="0px"
	 width="136px" height="136px" viewBox="0 0 136 136" enable-background="new 0 0 136 136" xml:space="preserve">
<g id="surface1">
	<path fill="#7F7F7F" d="M93.106,80.702c16.325-23.053,10.865-54.974-12.188-71.295S25.945-1.458,9.624,21.598
		C-6.698,44.651-1.242,76.568,21.815,92.89c16.454,11.649,38.208,12.546,55.563,2.298l37.709,37.482
		c4.071,4.285,10.846,4.457,15.132,0.386c4.286-4.067,4.457-10.842,0.391-15.128c-0.129-0.137-0.254-0.262-0.391-0.391
		L93.106,80.702z M51.334,84.197c-18.217,0.004-32.986-14.754-32.998-32.971C18.332,33.009,33.09,18.24,51.311,18.232
		c18.193-0.008,32.955,14.727,32.99,32.92c0.031,18.221-14.719,33.014-32.944,33.045C51.35,84.197,51.346,84.197,51.334,84.197z"/>
</g>
</svg>
