<svg xmlns="http://www.w3.org/2000/svg" width="16" height="19" viewBox="0 0 16 19">
    <g fill="#669931">
        <path d="M7.5 6C5.57 6 4 7.57 4 9.5S5.57 13 7.5 13 11 11.43 11 9.5 9.43 6 7.5 6zm2.361 2.77l-2.207 2.098c-.093.088-.215.132-.336.132-.121 0-.243-.044-.335-.132l-.844-.802c-.185-.176-.185-.461 0-.638.185-.176.486-.176.67 0l.509.483L9.19 8.132c.185-.176.486-.176.671 0 .185.176.185.462 0 .638z"/>
        <path d="M15.981 5.155V5.14c-.008-.182-.014-.375-.017-.59-.015-1.048-.839-1.914-1.875-1.973-2.16-.122-3.832-.834-5.26-2.241L8.817.324c-.465-.432-1.168-.432-1.634 0l-.012.012c-1.428 1.407-3.1 2.12-5.26 2.241C.877 2.636.052 3.502.038 4.55c-.004.214-.01.407-.017.59l-.001.035c-.042 2.227-.094 5 .823 7.516.504 1.384 1.268 2.587 2.27 3.575 1.14 1.126 2.635 2.02 4.442 2.657.059.021.12.038.182.05.088.018.176.027.264.027.089 0 .177-.009.265-.027.062-.012.123-.03.182-.05 1.805-.638 3.298-1.532 4.438-2.658 1.001-.99 1.765-2.193 2.27-3.577.92-2.523.868-5.301.826-7.533zM7.5 14C5.019 14 3 11.981 3 9.5S5.019 5 7.5 5 12 7.019 12 9.5 9.981 14 7.5 14z"/>
    </g>
</svg>
