<?xml version="1.0" encoding="utf-8"?>
<!-- Generator: Adobe Illustrator 15.0.0, SVG Export Plug-In . SVG Version: 6.00 Build 0)  -->
<!DOCTYPE svg PUBLIC "-//W3C//DTD SVG 1.1//EN" "http://www.w3.org/Graphics/SVG/1.1/DTD/svg11.dtd">
<svg version="1.1" id="Capa_1" xmlns="http://www.w3.org/2000/svg" xmlns:xlink="http://www.w3.org/1999/xlink" x="0px" y="0px"
	 width="612px" height="792px" viewBox="0 0 612 792" enable-background="new 0 0 612 792" xml:space="preserve">
<g>
	<g>
		<path fill="#606060" d="M575.553,341.417L81.776,136.529c-20.802-8.633-44.303-4.835-61.33,9.905
			C3.418,161.177-3.703,183.893,1.862,205.716l43.95,172.354H261c9.902,0,17.931,8.028,17.931,17.931
			c0,9.902-8.028,17.931-17.931,17.931H45.812L1.862,586.285c-5.565,21.824,1.555,44.54,18.583,59.281
			c17.062,14.771,40.565,18.521,61.332,9.903l493.776-204.888c22.482-9.325,36.447-30.24,36.447-54.581
			C612,371.661,598.035,350.744,575.553,341.417z"/>
	</g>
</g>
</svg>
