<?xml version="1.0" encoding="utf-8"?>
<!-- Generator: Adobe Illustrator 15.0.0, SVG Export Plug-In . SVG Version: 6.00 Build 0)  -->
<!DOCTYPE svg PUBLIC "-//W3C//DTD SVG 1.1//EN" "http://www.w3.org/Graphics/SVG/1.1/DTD/svg11.dtd">
<svg version="1.1" id="Layer_1" xmlns="http://www.w3.org/2000/svg" xmlns:xlink="http://www.w3.org/1999/xlink" x="0px" y="0px"
	 width="612px" height="792px" viewBox="0 0 612 792" enable-background="new 0 0 612 792" xml:space="preserve">
<g>
	<g>
		<path fill="#9B9B9B" d="M9.781,546.527l20.047,20.187c6.309,6.304,14.703,9.777,23.674,9.777c8.967,0,17.37-3.476,23.68-9.777
			l228.681-228.69l228.945,228.944c6.301,6.306,14.703,9.772,23.669,9.772c8.968,0,17.375-3.469,23.681-9.772l20.053-20.062
			c13.056-13.047,13.056-34.297,0-47.344L329.621,225.997c-6.299-6.3-14.693-10.737-23.74-10.737h-0.104
			c-8.972,0-17.364,4.443-23.664,10.737L9.782,498.822C3.471,505.121,0.009,513.769,0,522.734
			C-0.001,531.706,3.471,540.233,9.781,546.527z"/>
	</g>
</g>
</svg>
