<?xml version="1.0" encoding="utf-8"?>
<!-- Generator: Adobe Illustrator 15.0.0, SVG Export Plug-In . SVG Version: 6.00 Build 0)  -->
<!DOCTYPE svg PUBLIC "-//W3C//DTD SVG 1.1//EN" "http://www.w3.org/Graphics/SVG/1.1/DTD/svg11.dtd">
<svg version="1.1" id="Layer_1" xmlns="http://www.w3.org/2000/svg" xmlns:xlink="http://www.w3.org/1999/xlink" x="0px" y="0px"
	 width="612px" height="792px" viewBox="0 0 612 792" enable-background="new 0 0 612 792" xml:space="preserve">
<g>
	<g>
		<path fill="#C61010" d="M599.284,548.94l-216.19-397.415c-34.732-58.476-119.407-58.553-154.188,0L12.727,548.94
			c-35.508,59.752,7.481,135.418,77.076,135.418H522.19C591.727,684.358,634.792,608.754,599.284,548.94z M306,612.64
			c-19.768,0-35.859-16.091-35.859-35.857c0-19.77,16.091-35.859,35.859-35.859c19.768,0,35.859,16.091,35.859,35.859
			C341.859,596.549,325.768,612.64,306,612.64z M341.859,469.202c0,19.769-16.094,35.857-35.859,35.857
			c-19.768,0-35.859-16.091-35.859-35.857V289.905c0-19.768,16.091-35.859,35.859-35.859c19.768,0,35.859,16.091,35.859,35.859
			V469.202z"/>
	</g>
</g>
</svg>
