<?xml version="1.0" encoding="utf-8"?>
<!-- Generator: Adobe Illustrator 15.0.0, SVG Export Plug-In . SVG Version: 6.00 Build 0)  -->
<!DOCTYPE svg PUBLIC "-//W3C//DTD SVG 1.1//EN" "http://www.w3.org/Graphics/SVG/1.1/DTD/svg11.dtd">
<svg version="1.1" id="Capa_1" xmlns="http://www.w3.org/2000/svg" xmlns:xlink="http://www.w3.org/1999/xlink" x="0px" y="0px"
	 width="612px" height="792px" viewBox="0 0 612 792" enable-background="new 0 0 612 792" xml:space="preserve">
<g>
	<g>
		<path fill="#8A6D3B" d="M600.87,547.164c-0.021-0.04-0.043-0.08-0.065-0.119L384.575,158.807
			c-34.048-62.115-123.104-62.115-157.151-0.008L11.188,547.044c-0.022,0.039-0.044,0.078-0.065,0.119
			c-32.655,59.692,10.494,132.616,78.615,132.616h432.517C590.291,679.781,633.567,606.933,600.87,547.164z"/>
	</g>
</g>
<g>
	<g>
		<path fill="#FFFFFF" d="M413.529,375.108H323.92V267.577c0-18.498-24.799-24.817-33.656-8.583L182.733,456.136
			c-6.5,11.915,2.135,26.503,15.733,26.503h89.61V590.17c0,18.524,24.783,24.853,33.655,8.583l107.531-197.142
			C435.761,389.697,427.127,375.108,413.529,375.108z M323.92,519.888v-55.17c0-9.897-8.024-17.923-17.923-17.923h-77.34
			l59.419-108.936v55.17c0,9.896,8.024,17.922,17.922,17.922h77.341L323.92,519.888z"/>
	</g>
</g>
</svg>
