<svg xmlns="http://www.w3.org/2000/svg" width="28" height="18.438" viewBox="0 0 28 18.438">
  <g transform="matrix(-1 0 0 1 28 0)">
    <path fill="rgb(0,93,166)" fill-rule="evenodd" d="M.87122728 1.45396334C4.67971859 4.2311752 11.36243663 9.1171379 13.32657104 10.6405887c.26367312.2056157.54647813.31015023.84006853.31015023.29299422 0 .57531144-.10355452.83838839-.3081902 1.96581455-1.52494416 8.64853258-6.41137353 12.4570781-9.18858538.23711611-.17257531.27326616-.47591212.08129695-.68689454C27.09963004.27953654 26.43798123 0 25.728855 0H2.60442414C1.89535211 0 1.2336491.27953654.78993032.76711546c-.1919692.21093576-.15581916.51427257.08129696.68684788z"/>
    <path fill="rgb(0,93,166)" fill-rule="evenodd" d="M27.66164844 3.32274912c-.20677344-.08298217-.45002344-.0540327-.62207032.0727037-4.2616875 3.11475477-9.70079687 7.10723463-11.41207812 8.43669393-.96047656.74749965-2.29348438.74749965-3.25620313-.00099013C10.54725 10.41423599 4.4393125 5.93753629.96042187 3.39540567c-.1731953-.1267364-.41699218-.15469574-.6220703-.0727037C.13217968 3.40525981 0 3.58305855 0 3.77900963v12.64770923c0 1.10950939 1.04644531 2.01170479 2.33335156 2.01170479h23.33335156C26.9535547 18.43842365 28 17.53622825 28 16.42671885V3.77900964c0-.19595108-.13217969-.37422131-.33835156-.4562605z"/>
  </g>
</svg>
